<svg version="1.2" baseProfile="tiny-ps" xmlns="http://www.w3.org/2000/svg" viewBox="0 0 180 42" width="180" height="42">
	<title>logo-svg</title>
	<defs>
		<clipPath clipPathUnits="userSpaceOnUse" id="cp1">
			<path d="M0 0L180 0L180 41.81L0 41.81L0 0Z" />
		</clipPath>
	</defs>
	<style>
		tspan { white-space:pre }
		.shp0 { fill: #d11000 } 
	</style>
	<g id="Clip-Path" clip-path="url(#cp1)">
		<g id="Layer">
			<path id="Layer" class="shp0" d="M31.13 0.02C30.04 0.14 28.98 0.61 28.02 1.43C27.84 1.57 27.46 1.95 27.29 2.13C25.88 3.69 25.01 5.83 24.87 8.07C24.86 8.36 24.87 9.15 24.89 9.41C25 10.5 25.25 11.44 25.7 12.3C26.42 13.71 27.56 14.66 28.91 14.98C29.44 15.11 30.01 15.13 30.57 15.06C32.34 14.82 34.05 13.58 35.22 11.68C35.99 10.43 36.49 8.96 36.64 7.46C36.68 7.07 36.69 6.8 36.68 6.34C36.67 5.89 36.67 5.78 36.63 5.42C36.41 3.5 35.56 1.86 34.3 0.9C33.67 0.43 32.94 0.13 32.15 0.03C31.95 0 31.34 -0.01 31.13 0.02Z" />
			<path id="Layer" class="shp0" d="M14.57 0.14C13.66 0.22 12.86 0.54 12.12 1.13C11.98 1.24 11.57 1.64 11.45 1.78C10.61 2.77 10.06 4.07 9.88 5.54C9.82 5.97 9.81 6.1 9.81 6.7C9.81 7.31 9.82 7.46 9.88 7.93C10.22 10.53 11.56 12.83 13.44 14.04C14.88 14.96 16.51 15.12 17.92 14.47C19.48 13.75 20.65 12.07 21.05 9.97C21.15 9.4 21.2 8.92 21.2 8.31C21.2 7.91 21.19 7.66 21.15 7.31C20.89 4.78 19.65 2.47 17.88 1.17C17.09 0.6 16.25 0.26 15.39 0.16C15.2 0.14 14.74 0.13 14.57 0.14Z" />
			<path id="Layer" class="shp0" d="M4.25 11.37C2.92 11.43 1.74 12.1 0.97 13.22C0.51 13.88 0.2 14.71 0.07 15.6C0.01 15.98 0.01 16.08 0.01 16.62C0.01 17.18 0.01 17.3 0.08 17.72C0.3 19.27 0.99 20.78 2 21.95C3.28 23.43 4.97 24.28 6.57 24.23C7.19 24.21 7.76 24.07 8.3 23.8C10.17 22.89 11.18 20.59 10.84 18C10.72 17.06 10.42 16.12 9.98 15.24C8.89 13.13 7 11.66 5.05 11.4C4.9 11.39 4.82 11.38 4.51 11.37C4.46 11.37 4.35 11.37 4.25 11.37Z" />
			<path id="Layer" class="shp0" d="M41.92 11.42C41.39 11.46 40.85 11.59 40.33 11.79C39.99 11.92 39.51 12.16 39.17 12.38C38.41 12.86 37.68 13.54 37.11 14.3C35.77 16.09 35.18 18.31 35.52 20.28C35.9 22.53 37.46 24.05 39.53 24.22C39.76 24.24 40.29 24.23 40.51 24.2C42.21 23.97 43.84 22.96 45.05 21.38C45.7 20.52 46.21 19.51 46.49 18.48C46.63 17.98 46.72 17.45 46.75 16.92C46.77 16.67 46.76 16.02 46.74 15.8C46.61 14.65 46.24 13.71 45.61 12.93C45.39 12.67 45.06 12.37 44.78 12.17C44.41 11.91 43.95 11.69 43.52 11.57C43.33 11.52 43.03 11.46 42.82 11.43C42.65 11.41 42.09 11.4 41.92 11.42Z" />
			<path id="Layer" class="shp0" d="M22.45 16.31C21.29 16.35 20.28 16.67 19.31 17.29C18.53 17.79 17.77 18.5 16.95 19.47C16.45 20.07 16.02 20.64 14.95 22.12C13.95 23.5 13.42 24.2 12.81 24.91C12.14 25.69 11.54 26.3 10.79 26.93C9.74 27.83 8.86 28.82 8.18 29.88C7.22 31.37 6.67 32.94 6.56 34.51C6.55 34.73 6.55 35.29 6.56 35.52C6.69 37.33 7.44 38.9 8.76 40.12C10.29 41.52 12.06 42.02 14.45 41.7C15.32 41.59 16.21 41.39 17.96 40.92C19.73 40.45 20.7 40.24 21.61 40.14C22.78 40.01 24.03 40.09 25.5 40.38C26.2 40.52 26.74 40.65 28.14 41.03C29.82 41.48 30.48 41.63 31.3 41.74C31.77 41.8 31.87 41.8 32.47 41.8C33.06 41.8 33.12 41.8 33.51 41.75C34.75 41.58 35.97 41.01 37.04 40.12C37.19 39.99 37.61 39.58 37.74 39.43C38.7 38.35 39.23 37.06 39.35 35.57C39.37 35.35 39.37 34.76 39.35 34.54C39.24 33.07 38.76 31.65 37.89 30.24C37.16 29.06 36.22 27.98 35.01 26.93C34.17 26.21 33.59 25.62 32.92 24.8C32.3 24.04 31.82 23.37 30.88 21.94C30.09 20.75 29.79 20.29 29.44 19.83C28.55 18.64 27.72 17.86 26.76 17.3C25.65 16.66 24.36 16.34 22.79 16.31C22.66 16.31 22.5 16.31 22.45 16.31Z" />
			<path id="Pet Adoption " fill="#d11000" aria-label="Pet Adoption"  d="M63.16 20.16L61.79 20.16L61.79 23.59Q61.79 24.04 61.76 24.48Q61.74 24.91 61.58 25.25Q61.43 25.59 61.09 25.8Q60.76 26 60.14 26Q59.54 26 59.21 25.8Q58.88 25.59 58.73 25.25Q58.58 24.91 58.55 24.48Q58.53 24.04 58.53 23.59L58.53 13.59Q58.53 13.14 58.55 12.7Q58.58 12.27 58.73 11.93Q58.88 11.59 59.21 11.39Q59.54 11.18 60.14 11.18L63.68 11.18Q65.01 11.24 66.06 11.73Q66.51 11.94 66.93 12.26Q67.36 12.58 67.69 13.04Q68.03 13.5 68.24 14.13Q68.44 14.76 68.44 15.58Q68.44 16.72 68.08 17.57Q67.72 18.42 67.04 19Q66.36 19.57 65.37 19.87Q64.4 20.16 63.16 20.16ZM61.79 17.64L63.25 17.64Q63.79 17.6 64.21 17.38Q64.4 17.29 64.57 17.14Q64.74 16.99 64.88 16.78Q65.02 16.56 65.09 16.26Q65.18 15.96 65.18 15.58Q65.18 15.22 65.09 14.96Q65.02 14.68 64.89 14.49Q64.76 14.29 64.6 14.15Q64.44 14.02 64.27 13.92Q63.86 13.72 63.36 13.68L61.79 13.68L61.79 17.64ZM78.65 19.31L78.65 19.97Q78.65 20.13 78.63 20.37Q78.61 20.59 78.46 20.8Q78.32 21 78.01 21.15Q77.7 21.3 77.13 21.3L72.86 21.3L72.86 22.32Q72.86 22.57 72.92 22.85Q72.99 23.12 73.14 23.35Q73.3 23.59 73.56 23.73Q73.81 23.88 74.19 23.88Q74.62 23.88 74.84 23.79Q75.08 23.68 75.21 23.53Q75.35 23.38 75.45 23.22Q75.56 23.05 75.73 22.9Q75.92 22.75 76.23 22.65Q76.55 22.55 77.11 22.55Q77.37 22.55 77.62 22.59Q77.88 22.63 78.07 22.75Q78.26 22.87 78.38 23.08Q78.5 23.28 78.5 23.61Q78.5 24.3 78.06 24.76Q77.62 25.22 76.96 25.49Q76.29 25.77 75.51 25.88Q74.74 26 74.06 26Q73.17 25.99 72.37 25.78Q71.56 25.57 70.94 25.1Q70.33 24.63 69.96 23.88Q69.6 23.13 69.6 22.04L69.6 19.56Q69.6 18.56 69.83 17.86Q70.08 17.16 70.47 16.69Q70.85 16.23 71.34 15.97Q71.82 15.71 72.31 15.58Q72.81 15.46 73.24 15.42Q73.7 15.39 74.02 15.39Q75.1 15.39 75.86 15.58Q76.63 15.77 77.15 16.08Q77.66 16.39 77.96 16.79Q78.26 17.19 78.41 17.63Q78.56 18.05 78.61 18.49Q78.65 18.93 78.65 19.31ZM72.86 18.97L72.86 19.71L75.54 19.71Q75.54 19.21 75.51 18.83Q75.49 18.44 75.35 18.18Q75.22 17.91 74.93 17.77Q74.65 17.64 74.12 17.64Q73.68 17.64 73.43 17.77Q73.18 17.91 73.05 18.12Q72.92 18.32 72.89 18.56Q72.86 18.79 72.86 18.97ZM81.72 15.41L82.32 15.41L82.32 13.55Q82.32 13.1 82.36 12.68Q82.41 12.26 82.59 11.93Q82.76 11.59 83.08 11.39Q83.4 11.18 83.95 11.18Q84.48 11.18 84.81 11.39Q85.13 11.59 85.29 11.93Q85.46 12.26 85.5 12.68Q85.56 13.1 85.56 13.55L85.56 15.41L86.44 15.41Q86.71 15.41 86.99 15.44Q87.27 15.47 87.49 15.59Q87.71 15.72 87.84 15.97Q87.98 16.23 87.98 16.68Q87.98 17.12 87.84 17.37Q87.71 17.63 87.49 17.75Q87.27 17.88 86.99 17.92Q86.71 17.95 86.44 17.95L85.56 17.95L85.56 21.66Q85.56 21.87 85.57 22.11Q85.59 22.35 85.69 22.55Q85.78 22.75 85.97 22.89Q86.17 23.01 86.52 23.01Q86.91 23.01 87.18 23.08Q87.46 23.13 87.63 23.28Q87.81 23.43 87.89 23.69Q87.98 23.96 87.98 24.37Q87.98 24.79 87.78 25.1Q87.58 25.41 87.25 25.61Q86.92 25.81 86.48 25.9Q86.04 26 85.56 26Q84.8 26 84.25 25.84Q83.71 25.68 83.35 25.4Q82.99 25.1 82.78 24.7Q82.58 24.28 82.47 23.78Q82.37 23.27 82.34 22.69Q82.32 22.09 82.32 21.45L82.32 17.95L81.72 17.95Q81.44 17.95 81.16 17.92Q80.89 17.88 80.68 17.75Q80.46 17.63 80.32 17.37Q80.19 17.12 80.19 16.68Q80.19 16.23 80.32 15.97Q80.46 15.72 80.68 15.59Q80.89 15.47 81.16 15.44Q81.44 15.41 81.72 15.41ZM103.25 13.93L101.67 19.61L105.08 19.61L103.49 13.93L103.25 13.93ZM106.17 13.17L108.4 20.64Q108.42 21.36 108.45 22.11Q108.49 22.87 108.49 23.56L108.49 23.88Q108.49 24.28 108.45 24.67Q108.43 25.04 108.29 25.34Q108.15 25.64 107.85 25.82Q107.55 26 107.01 26Q106.45 26 106.15 25.82Q105.85 25.64 105.7 25.34Q105.56 25.05 105.53 24.67Q105.5 24.28 105.5 23.88L105.5 22.4L101.21 22.4L101.21 23.88Q101.21 24.28 101.18 24.67Q101.16 25.05 101.01 25.34Q100.87 25.64 100.57 25.82Q100.27 26 99.71 26Q99.16 26 98.86 25.82Q98.56 25.64 98.42 25.34Q98.28 25.04 98.25 24.67Q98.23 24.28 98.23 23.88L98.23 23.56Q98.23 23.24 98.23 22.87Q98.24 22.5 98.25 22.11Q98.27 21.73 98.28 21.36Q98.29 20.98 98.3 20.64Q98.83 18.8 99.42 16.92Q100.01 15.02 100.55 13.17Q100.66 12.78 100.81 12.42Q100.96 12.05 101.2 11.78Q101.45 11.51 101.84 11.35Q102.22 11.18 102.82 11.18L103.9 11.18Q104.49 11.18 104.87 11.35Q105.27 11.51 105.52 11.78Q105.76 12.05 105.9 12.42Q106.05 12.78 106.17 13.17ZM119.04 13.59L119.04 23.61Q119.04 24.05 119.01 24.49Q118.97 24.91 118.81 25.25Q118.65 25.59 118.33 25.8Q118.01 26 117.43 26Q116.84 26 116.51 25.81Q116.18 25.61 116.01 25.33Q115.85 25.05 115.81 24.74Q115.78 24.43 115.78 24.22Q115.68 24.53 115.5 24.85Q115.33 25.16 115.05 25.42Q114.77 25.67 114.37 25.84Q113.99 26 113.46 26Q112.87 26 112.28 25.81Q111.69 25.62 111.22 25.17Q110.75 24.73 110.45 24.02Q110.16 23.3 110.16 22.25L110.16 19.18Q110.16 18.12 110.45 17.41Q110.75 16.69 111.22 16.26Q111.69 15.82 112.28 15.62Q112.87 15.43 113.46 15.43Q113.99 15.43 114.37 15.59Q114.77 15.75 115.05 16.01Q115.33 16.26 115.5 16.58Q115.68 16.9 115.78 17.21L115.78 13.59Q115.78 13.14 115.82 12.7Q115.88 12.26 116.04 11.93Q116.21 11.59 116.53 11.39Q116.86 11.18 117.43 11.18Q117.97 11.18 118.29 11.39Q118.61 11.59 118.77 11.93Q118.94 12.26 118.99 12.7Q119.04 13.14 119.04 13.59ZM113.46 19.41L113.46 21.98Q113.46 22.26 113.48 22.54Q113.51 22.81 113.6 23.04Q113.7 23.26 113.88 23.4Q114.07 23.52 114.41 23.52Q114.82 23.52 115.08 23.34Q115.35 23.15 115.5 22.77Q115.65 22.38 115.7 21.8Q115.77 21.2 115.78 20.39Q115.78 20.06 115.71 19.64Q115.66 19.2 115.51 18.82Q115.36 18.44 115.09 18.18Q114.82 17.91 114.41 17.91Q114.07 17.91 113.88 18.05Q113.7 18.18 113.6 18.39Q113.51 18.6 113.48 18.87Q113.46 19.14 113.46 19.41ZM121.06 22.02L121.06 19.39Q121.06 18.42 121.32 17.74Q121.59 17.06 122.01 16.61Q122.44 16.15 122.95 15.9Q123.48 15.65 123.98 15.52Q124.49 15.39 124.92 15.36Q125.36 15.33 125.6 15.33Q125.85 15.33 126.28 15.36Q126.71 15.39 127.19 15.52Q127.68 15.65 128.18 15.9Q128.68 16.15 129.08 16.61Q129.49 17.06 129.74 17.74Q130 18.42 130 19.39L130 22.02Q130 22.99 129.74 23.67Q129.49 24.35 129.08 24.8Q128.68 25.26 128.18 25.51Q127.68 25.77 127.19 25.89Q126.71 26.02 126.28 26.05Q125.85 26.08 125.6 26.08Q125.36 26.08 124.92 26.05Q124.49 26.02 123.98 25.89Q123.48 25.77 122.95 25.51Q122.44 25.26 122.01 24.8Q121.59 24.35 121.32 23.67Q121.06 22.99 121.06 22.02ZM124.36 18.93L124.36 22.76Q124.37 23.07 124.51 23.3Q124.63 23.51 124.87 23.68Q125.13 23.84 125.6 23.84Q126.05 23.84 126.29 23.68Q126.54 23.51 126.65 23.3Q126.78 23.07 126.8 22.76L126.8 18.93Q126.78 18.61 126.65 18.35Q126.54 18.13 126.29 17.95Q126.05 17.76 125.6 17.76Q125.13 17.76 124.87 17.95Q124.63 18.13 124.51 18.35Q124.37 18.61 124.36 18.93ZM132.25 27.82L132.25 17.81Q132.25 17.36 132.28 16.94Q132.32 16.5 132.48 16.16Q132.64 15.83 132.96 15.62Q133.28 15.41 133.86 15.41Q134.45 15.41 134.78 15.61Q135.12 15.8 135.28 16.09Q135.44 16.37 135.47 16.67Q135.51 16.98 135.51 17.19Q135.61 16.88 135.78 16.57Q135.96 16.25 136.24 16Q136.52 15.74 136.91 15.58Q137.3 15.41 137.83 15.41Q138.42 15.41 139.01 15.6Q139.6 15.79 140.07 16.24Q140.54 16.68 140.83 17.4Q141.13 18.11 141.13 19.16L141.13 22.23Q141.13 23.29 140.83 24.01Q140.54 24.72 140.07 25.16Q139.6 25.6 139.01 25.79Q138.42 25.98 137.83 25.98Q137.3 25.98 136.91 25.82Q136.52 25.66 136.24 25.41Q135.96 25.15 135.78 24.84Q135.61 24.52 135.51 24.2L135.51 27.82Q135.51 28.29 135.46 28.72Q135.42 29.15 135.24 29.49Q135.08 29.82 134.75 30.03Q134.42 30.23 133.86 30.23Q133.32 30.23 133 30.03Q132.68 29.82 132.51 29.49Q132.35 29.15 132.29 28.72Q132.25 28.29 132.25 27.82ZM137.83 22L137.83 19.44Q137.83 19.15 137.81 18.87Q137.79 18.6 137.69 18.38Q137.59 18.15 137.4 18.03Q137.22 17.89 136.89 17.89Q136.47 17.89 136.2 18.08Q135.94 18.26 135.79 18.65Q135.64 19.03 135.58 19.63Q135.52 20.22 135.51 21.02Q135.51 21.36 135.57 21.8Q135.63 22.22 135.78 22.6Q135.93 22.98 136.2 23.25Q136.47 23.5 136.89 23.5Q137.22 23.5 137.4 23.37Q137.59 23.24 137.69 23.02Q137.79 22.81 137.81 22.55Q137.83 22.27 137.83 22ZM144.39 15.41L144.99 15.41L144.99 13.55Q144.99 13.1 145.04 12.68Q145.09 12.26 145.26 11.93Q145.43 11.59 145.75 11.39Q146.08 11.18 146.62 11.18Q147.16 11.18 147.48 11.39Q147.8 11.59 147.96 11.93Q148.14 12.26 148.18 12.68Q148.23 13.1 148.23 13.55L148.23 15.41L149.11 15.41Q149.39 15.41 149.67 15.44Q149.95 15.47 150.16 15.59Q150.39 15.72 150.52 15.97Q150.66 16.23 150.66 16.68Q150.66 17.12 150.52 17.37Q150.39 17.63 150.16 17.75Q149.95 17.88 149.67 17.92Q149.39 17.95 149.11 17.95L148.23 17.95L148.23 21.66Q148.23 21.87 148.24 22.11Q148.26 22.35 148.36 22.55Q148.46 22.75 148.65 22.89Q148.84 23.01 149.2 23.01Q149.58 23.01 149.85 23.08Q150.13 23.13 150.3 23.28Q150.48 23.43 150.57 23.69Q150.66 23.96 150.66 24.37Q150.66 24.79 150.45 25.1Q150.26 25.41 149.93 25.61Q149.59 25.81 149.15 25.9Q148.71 26 148.23 26Q147.47 26 146.92 25.84Q146.39 25.68 146.02 25.4Q145.67 25.1 145.45 24.7Q145.25 24.28 145.14 23.78Q145.05 23.27 145.01 22.69Q144.99 22.09 144.99 21.45L144.99 17.95L144.39 17.95Q144.11 17.95 143.83 17.92Q143.57 17.88 143.35 17.75Q143.14 17.63 143 17.37Q142.87 17.12 142.87 16.68Q142.87 16.23 143 15.97Q143.14 15.72 143.35 15.59Q143.57 15.47 143.83 15.44Q144.11 15.41 144.39 15.41ZM153.21 23.63L153.21 17.78Q153.21 17.34 153.25 16.92Q153.3 16.49 153.48 16.16Q153.65 15.83 153.97 15.62Q154.29 15.41 154.84 15.41Q155.39 15.41 155.71 15.62Q156.03 15.83 156.2 16.16Q156.37 16.49 156.41 16.92Q156.47 17.34 156.47 17.78L156.47 23.63Q156.47 24.07 156.41 24.51Q156.37 24.93 156.2 25.27Q156.03 25.6 155.71 25.8Q155.39 26 154.84 26Q154.29 26 153.97 25.8Q153.65 25.6 153.48 25.27Q153.3 24.93 153.25 24.51Q153.21 24.07 153.21 23.63ZM156.49 12.79Q156.49 13.6 156.06 14Q155.63 14.4 154.86 14.4Q154.09 14.4 153.66 14Q153.23 13.6 153.23 12.79Q153.23 11.94 153.66 11.56Q154.09 11.18 154.86 11.18Q155.69 11.18 156.08 11.56Q156.49 11.94 156.49 12.79ZM159.11 22.02L159.11 19.39Q159.11 18.42 159.37 17.74Q159.64 17.06 160.06 16.61Q160.49 16.15 161 15.9Q161.53 15.65 162.03 15.52Q162.54 15.39 162.97 15.36Q163.41 15.33 163.65 15.33Q163.9 15.33 164.33 15.36Q164.76 15.39 165.24 15.52Q165.73 15.65 166.23 15.9Q166.73 16.15 167.13 16.61Q167.54 17.06 167.79 17.74Q168.05 18.42 168.05 19.39L168.05 22.02Q168.05 22.99 167.79 23.67Q167.54 24.35 167.13 24.8Q166.73 25.26 166.23 25.51Q165.73 25.77 165.24 25.89Q164.76 26.02 164.33 26.05Q163.9 26.08 163.65 26.08Q163.41 26.08 162.97 26.05Q162.54 26.02 162.03 25.89Q161.53 25.77 161 25.51Q160.49 25.26 160.06 24.8Q159.64 24.35 159.37 23.67Q159.11 22.99 159.11 22.02ZM162.41 18.93L162.41 22.76Q162.42 23.07 162.56 23.3Q162.68 23.51 162.92 23.68Q163.18 23.84 163.65 23.84Q164.1 23.84 164.34 23.68Q164.59 23.51 164.7 23.3Q164.83 23.07 164.86 22.76L164.86 18.93Q164.83 18.61 164.7 18.35Q164.59 18.13 164.34 17.95Q164.1 17.76 163.65 17.76Q163.18 17.76 162.92 17.95Q162.68 18.13 162.56 18.35Q162.42 18.61 162.41 18.93ZM179.25 19.18L179.25 23.59Q179.25 24.04 179.19 24.48Q179.14 24.91 178.96 25.25Q178.79 25.59 178.45 25.8Q178.13 26 177.57 26Q177.03 26 176.71 25.8Q176.38 25.59 176.21 25.25Q176.04 24.91 175.99 24.48Q175.94 24.04 175.94 23.59L175.94 19.46Q175.94 19.16 175.91 18.87Q175.89 18.59 175.79 18.38Q175.7 18.15 175.5 18.03Q175.32 17.89 175 17.89Q174.56 17.89 174.29 18.18Q174.02 18.46 173.86 18.96Q173.71 19.46 173.66 20.13Q173.61 20.8 173.61 21.57L173.61 23.59Q173.61 24.04 173.55 24.48Q173.5 24.91 173.32 25.25Q173.15 25.59 172.81 25.8Q172.49 26 171.93 26Q171.39 26 171.06 25.8Q170.74 25.59 170.57 25.25Q170.4 24.91 170.35 24.48Q170.3 24.04 170.3 23.59L170.3 17.81Q170.3 17.35 170.34 16.93Q170.37 16.49 170.53 16.16Q170.69 15.83 171.01 15.62Q171.34 15.41 171.93 15.41Q172.52 15.41 172.86 15.61Q173.19 15.8 173.35 16.08Q173.52 16.36 173.56 16.66Q173.61 16.97 173.61 17.19Q173.69 16.88 173.87 16.57Q174.06 16.25 174.34 16Q174.63 15.74 175.02 15.58Q175.42 15.41 175.94 15.41Q176.53 15.41 177.12 15.6Q177.71 15.79 178.19 16.24Q178.66 16.68 178.95 17.4Q179.25 18.12 179.25 19.18Z" />
		</g>
	</g>
</svg>